<svg width="199" height="48" viewBox="0 0 199 48" fill="none" xmlns="http://www.w3.org/2000/svg">
<path d="M36.7072 11.1633C36.2749 10.7311 35.8427 10.2989 35.4105 9.86666C34.1138 8.48356 32.7307 7.10046 31.0018 6.23602C29.0136 5.19869 26.8525 5.45801 24.6914 5.45801C21.4066 5.45801 13.1944 5.45801 8.35352 5.45801L11.6384 9.86666C17.603 9.86666 26.939 9.86666 31.2612 9.86666C33.0765 9.86666 34.6325 10.2124 36.1021 11.1633C36.3614 11.2498 36.6207 11.2498 36.7072 11.1633Z" fill="#66C61C"/>
<path d="M40.3371 18.2517C39.9049 17.8195 39.4727 17.3873 39.0405 16.955C37.7438 15.5719 36.3607 14.1888 34.6318 13.3244C32.6436 12.2871 30.4825 12.5464 28.3214 12.5464C25.4688 12.5464 18.6397 12.5464 13.7988 12.5464L17.0837 16.955C22.9619 16.955 31.0012 16.955 34.9776 16.955C36.7929 16.955 38.3489 17.3008 39.8185 18.2517C39.9914 18.3381 40.1643 18.3381 40.3371 18.2517Z" fill="#4CA30D"/>
<path d="M44.4004 25.1667C43.9681 24.7345 43.5359 24.3023 43.1037 23.8701C41.807 22.487 40.4239 21.1039 38.6951 20.2394C36.7068 19.2021 34.5457 19.4614 32.3846 19.4614C29.7049 19.4614 23.8267 19.4614 19.0723 19.4614L22.3571 23.8701C28.0624 23.8701 35.3237 23.8701 38.9544 23.8701C40.7697 23.8701 42.3257 24.2159 43.7952 25.1667C44.0546 25.2532 44.2275 25.3396 44.4004 25.1667Z" fill="#3B7C0F"/>
<path d="M8.00781 36.8368C8.44003 37.269 8.87225 37.7012 9.30447 38.1335C10.6011 39.5166 11.9842 40.8997 13.7131 41.7641C15.7013 42.8014 17.8624 42.5421 20.0235 42.5421H36.3615L33.0766 38.1335C27.1119 38.1335 17.776 38.1335 13.4538 38.1335C11.6385 38.1335 10.0825 37.7877 8.61292 36.8368C8.35359 36.7504 8.1807 36.7504 8.00781 36.8368Z" fill="#66C61C"/>
<path d="M4.37695 29.7489C4.80917 30.1811 5.24139 30.6134 5.67361 31.0456C6.97027 32.4287 8.35337 33.8118 10.0823 34.6762C12.0705 35.7136 14.2316 35.4542 16.3927 35.4542H30.9153L27.6304 31.0456C21.7522 31.0456 13.7129 31.0456 9.73648 31.0456C7.92116 31.0456 6.36516 30.6998 4.89561 29.7489C4.72272 29.6625 4.54984 29.6625 4.37695 29.7489Z" fill="#4CA30D"/>
<path d="M0.400391 22.7465C0.832611 23.1787 1.26483 23.6109 1.69705 24.0431C2.99371 25.4262 4.37682 26.8094 6.1057 27.6738C8.09391 28.7111 10.255 28.4518 12.4161 28.4518H25.7285L22.4436 24.0431C16.7383 24.0431 9.47702 24.0431 5.84637 24.0431C4.03104 24.0431 2.47504 23.6974 1.0055 22.7465C0.746164 22.66 0.573279 22.66 0.400391 22.7465Z" fill="#3B7C0F"/>
<path d="M54.332 14.0078V33.9998H58.728V25.7398H67.1V22.3238H58.728V17.7038H68.388V14.0078H54.332Z" fill="#101828"/>
<path d="M79.4137 25.2078H72.9457C72.9644 24.9278 73.0204 24.6105 73.1137 24.2558C73.2257 23.9011 73.403 23.5651 73.6457 23.2478C73.907 22.9305 74.243 22.6691 74.6537 22.4638C75.083 22.2398 75.615 22.1278 76.2497 22.1278C77.2204 22.1278 77.939 22.3891 78.4057 22.9118C78.891 23.4345 79.227 24.1998 79.4137 25.2078ZM72.9457 27.7278H83.3897C83.4644 26.6078 83.371 25.5345 83.1097 24.5078C82.8484 23.4811 82.419 22.5665 81.8217 21.7638C81.243 20.9611 80.4964 20.3265 79.5817 19.8598C78.667 19.3745 77.5937 19.1318 76.3617 19.1318C75.2604 19.1318 74.2524 19.3278 73.3377 19.7198C72.4417 20.1118 71.667 20.6531 71.0137 21.3438C70.3604 22.0158 69.8564 22.8185 69.5017 23.7518C69.147 24.6851 68.9697 25.6931 68.9697 26.7758C68.9697 27.8958 69.1377 28.9225 69.4737 29.8558C69.8284 30.7891 70.323 31.5918 70.9577 32.2638C71.5924 32.9358 72.367 33.4585 73.2817 33.8318C74.1964 34.1865 75.223 34.3638 76.3617 34.3638C78.0044 34.3638 79.4044 33.9905 80.5617 33.2438C81.719 32.4971 82.5777 31.2558 83.1377 29.5198H79.6377C79.507 29.9678 79.1524 30.3971 78.5737 30.8078C77.995 31.1998 77.3044 31.3958 76.5017 31.3958C75.3817 31.3958 74.523 31.1065 73.9257 30.5278C73.3284 29.9491 73.0017 29.0158 72.9457 27.7278Z" fill="#101828"/>
<path d="M84.7398 23.9758C84.7958 23.0425 85.0291 22.2678 85.4398 21.6518C85.8505 21.0358 86.3731 20.5411 87.0078 20.1678C87.6425 19.7945 88.3518 19.5331 89.1358 19.3838C89.9385 19.2158 90.7411 19.1318 91.5438 19.1318C92.2718 19.1318 93.0091 19.1878 93.7558 19.2998C94.5025 19.3931 95.1838 19.5891 95.7998 19.8878C96.4158 20.1865 96.9198 20.6065 97.3118 21.1478C97.7038 21.6705 97.8998 22.3705 97.8998 23.2478V30.7798C97.8998 31.4331 97.9371 32.0585 98.0118 32.6558C98.0865 33.2531 98.2171 33.7011 98.4038 33.9998H94.3718C94.2971 33.7758 94.2318 33.5518 94.1758 33.3278C94.1385 33.0851 94.1105 32.8425 94.0918 32.5998C93.4571 33.2531 92.7105 33.7105 91.8518 33.9718C90.9931 34.2331 90.1158 34.3638 89.2198 34.3638C88.5291 34.3638 87.8851 34.2798 87.2878 34.1118C86.6905 33.9438 86.1678 33.6825 85.7198 33.3278C85.2718 32.9731 84.9171 32.5251 84.6558 31.9838C84.4131 31.4425 84.2918 30.7985 84.2918 30.0518C84.2918 29.2305 84.4318 28.5585 84.7118 28.0358C85.0105 27.4945 85.3838 27.0651 85.8318 26.7478C86.2985 26.4305 86.8211 26.1971 87.3998 26.0478C87.9971 25.8798 88.5945 25.7491 89.1918 25.6558C89.7891 25.5625 90.3771 25.4878 90.9558 25.4318C91.5345 25.3758 92.0478 25.2918 92.4958 25.1798C92.9438 25.0678 93.2985 24.9091 93.5598 24.7038C93.8211 24.4798 93.9425 24.1625 93.9238 23.7518C93.9238 23.3225 93.8491 22.9865 93.6998 22.7438C93.5691 22.4825 93.3825 22.2865 93.1398 22.1558C92.9158 22.0065 92.6451 21.9131 92.3278 21.8758C92.0291 21.8198 91.7025 21.7918 91.3478 21.7918C90.5638 21.7918 89.9478 21.9598 89.4998 22.2958C89.0518 22.6318 88.7905 23.1918 88.7158 23.9758H84.7398ZM93.9238 26.9158C93.7558 27.0651 93.5411 27.1865 93.2798 27.2798C93.0371 27.3545 92.7665 27.4198 92.4678 27.4758C92.1878 27.5318 91.8891 27.5785 91.5718 27.6158C91.2545 27.6531 90.9371 27.6998 90.6198 27.7558C90.3211 27.8118 90.0225 27.8865 89.7238 27.9798C89.4438 28.0731 89.1918 28.2038 88.9678 28.3718C88.7625 28.5211 88.5945 28.7171 88.4638 28.9598C88.3331 29.2025 88.2678 29.5105 88.2678 29.8838C88.2678 30.2385 88.3331 30.5371 88.4638 30.7798C88.5945 31.0225 88.7718 31.2185 88.9958 31.3678C89.2198 31.4985 89.4811 31.5918 89.7798 31.6478C90.0785 31.7038 90.3865 31.7318 90.7038 31.7318C91.4878 31.7318 92.0945 31.6011 92.5238 31.3398C92.9531 31.0785 93.2705 30.7705 93.4758 30.4158C93.6811 30.0425 93.8025 29.6691 93.8398 29.2958C93.8958 28.9225 93.9238 28.6238 93.9238 28.3998V26.9158Z" fill="#101828"/>
<path d="M105.186 19.5238V15.1838H101.21V19.5238H98.8019V22.1838H101.21V30.7238C101.21 31.4518 101.331 32.0398 101.574 32.4878C101.817 32.9358 102.143 33.2811 102.554 33.5238C102.983 33.7665 103.469 33.9251 104.01 33.9998C104.57 34.0931 105.158 34.1398 105.774 34.1398C106.166 34.1398 106.567 34.1305 106.978 34.1118C107.389 34.0931 107.762 34.0558 108.098 33.9998V30.9198C107.911 30.9571 107.715 30.9851 107.51 31.0038C107.305 31.0225 107.09 31.0318 106.866 31.0318C106.194 31.0318 105.746 30.9198 105.522 30.6958C105.298 30.4718 105.186 30.0238 105.186 29.3518V22.1838H108.098V19.5238H105.186Z" fill="#101828"/>
<path d="M109.15 14.0078V33.9998H113.126V26.4118C113.126 24.9371 113.368 23.8825 113.854 23.2478C114.339 22.5945 115.123 22.2678 116.206 22.2678C117.158 22.2678 117.82 22.5665 118.194 23.1638C118.567 23.7425 118.754 24.6291 118.754 25.8238V33.9998H122.73V25.0958C122.73 24.1998 122.646 23.3878 122.478 22.6598C122.328 21.9131 122.058 21.2878 121.666 20.7838C121.274 20.2611 120.732 19.8598 120.042 19.5798C119.37 19.2811 118.502 19.1318 117.438 19.1318C116.691 19.1318 115.926 19.3278 115.142 19.7198C114.358 20.0931 113.714 20.6998 113.21 21.5398H113.126V14.0078H109.15Z" fill="#101828"/>
<path d="M134.651 25.2078H128.183C128.202 24.9278 128.258 24.6105 128.351 24.2558C128.463 23.9011 128.641 23.5651 128.883 23.2478C129.145 22.9305 129.481 22.6691 129.891 22.4638C130.321 22.2398 130.853 22.1278 131.487 22.1278C132.458 22.1278 133.177 22.3891 133.643 22.9118C134.129 23.4345 134.465 24.1998 134.651 25.2078ZM128.183 27.7278H138.627C138.702 26.6078 138.609 25.5345 138.347 24.5078C138.086 23.4811 137.657 22.5665 137.059 21.7638C136.481 20.9611 135.734 20.3265 134.819 19.8598C133.905 19.3745 132.831 19.1318 131.599 19.1318C130.498 19.1318 129.49 19.3278 128.575 19.7198C127.679 20.1118 126.905 20.6531 126.251 21.3438C125.598 22.0158 125.094 22.8185 124.739 23.7518C124.385 24.6851 124.207 25.6931 124.207 26.7758C124.207 27.8958 124.375 28.9225 124.711 29.8558C125.066 30.7891 125.561 31.5918 126.195 32.2638C126.83 32.9358 127.605 33.4585 128.519 33.8318C129.434 34.1865 130.461 34.3638 131.599 34.3638C133.242 34.3638 134.642 33.9905 135.799 33.2438C136.957 32.4971 137.815 31.2558 138.375 29.5198H134.875C134.745 29.9678 134.39 30.3971 133.811 30.8078C133.233 31.1998 132.542 31.3958 131.739 31.3958C130.619 31.3958 129.761 31.1065 129.163 30.5278C128.566 29.9491 128.239 29.0158 128.183 27.7278Z" fill="#101828"/>
<path d="M140.145 19.5238V33.9998H144.121V27.4758C144.121 26.8225 144.187 26.2158 144.317 25.6558C144.448 25.0958 144.663 24.6105 144.961 24.1998C145.279 23.7705 145.689 23.4345 146.193 23.1918C146.697 22.9491 147.313 22.8278 148.041 22.8278C148.284 22.8278 148.536 22.8465 148.797 22.8838C149.059 22.9025 149.283 22.9305 149.469 22.9678V19.2718C149.152 19.1785 148.863 19.1318 148.601 19.1318C148.097 19.1318 147.612 19.2065 147.145 19.3558C146.679 19.5051 146.24 19.7198 145.829 19.9998C145.419 20.2611 145.055 20.5878 144.737 20.9798C144.42 21.3531 144.168 21.7638 143.981 22.2118H143.925V19.5238H140.145Z" fill="#101828"/>
<path d="M155.004 30.3038V17.7038H158.14C159.223 17.7038 160.128 17.8625 160.856 18.1798C161.603 18.4785 162.2 18.9171 162.648 19.4958C163.096 20.0745 163.414 20.7745 163.6 21.5958C163.806 22.3985 163.908 23.3038 163.908 24.3118C163.908 25.4131 163.768 26.3465 163.488 27.1118C163.208 27.8771 162.835 28.5025 162.368 28.9878C161.902 29.4545 161.37 29.7905 160.772 29.9958C160.175 30.2011 159.559 30.3038 158.924 30.3038H155.004ZM150.608 14.0078V33.9998H159.232C160.763 33.9998 162.088 33.7478 163.208 33.2438C164.347 32.7211 165.29 32.0118 166.036 31.1158C166.802 30.2198 167.371 29.1558 167.744 27.9238C168.118 26.6918 168.304 25.3478 168.304 23.8918C168.304 22.2305 168.071 20.7838 167.604 19.5518C167.156 18.3198 166.522 17.2931 165.7 16.4718C164.898 15.6505 163.936 15.0345 162.816 14.6238C161.715 14.2131 160.52 14.0078 159.232 14.0078H150.608Z" fill="#101828"/>
<path d="M179.846 25.2078H173.378C173.397 24.9278 173.453 24.6105 173.546 24.2558C173.658 23.9011 173.836 23.5651 174.078 23.2478C174.34 22.9305 174.676 22.6691 175.086 22.4638C175.516 22.2398 176.048 22.1278 176.682 22.1278C177.653 22.1278 178.372 22.3891 178.838 22.9118C179.324 23.4345 179.66 24.1998 179.846 25.2078ZM173.378 27.7278H183.822C183.897 26.6078 183.804 25.5345 183.542 24.5078C183.281 23.4811 182.852 22.5665 182.254 21.7638C181.676 20.9611 180.929 20.3265 180.014 19.8598C179.1 19.3745 178.026 19.1318 176.794 19.1318C175.693 19.1318 174.685 19.3278 173.77 19.7198C172.874 20.1118 172.1 20.6531 171.446 21.3438C170.793 22.0158 170.289 22.8185 169.934 23.7518C169.58 24.6851 169.402 25.6931 169.402 26.7758C169.402 27.8958 169.57 28.9225 169.906 29.8558C170.261 30.7891 170.756 31.5918 171.39 32.2638C172.025 32.9358 172.8 33.4585 173.714 33.8318C174.629 34.1865 175.656 34.3638 176.794 34.3638C178.437 34.3638 179.837 33.9905 180.994 33.2438C182.152 32.4971 183.01 31.2558 183.57 29.5198H180.07C179.94 29.9678 179.585 30.3971 179.006 30.8078C178.428 31.1998 177.737 31.3958 176.934 31.3958C175.814 31.3958 174.956 31.1065 174.358 30.5278C173.761 29.9491 173.434 29.0158 173.378 27.7278Z" fill="#101828"/>
<path d="M193.348 33.9998L198.248 19.5238H194.3L191.248 29.4078H191.192L188.14 19.5238H183.968L188.924 33.9998H193.348Z" fill="#101828"/>
</svg>
