<svg width="198" height="48" viewBox="0 0 198 48" fill="none" xmlns="http://www.w3.org/2000/svg">
<path d="M31.2287 2H14.3709L0.799805 15.5711V32.4289L14.3709 46H31.2287L44.7998 32.4289V15.5711L31.2287 2ZM16.7034 32.641L8.00946 23.947L16.7034 15.253C19.9902 11.9663 25.3974 11.9663 28.6842 15.253L37.3781 23.947L28.6842 32.641C25.3974 35.9277 20.0962 35.9277 16.7034 32.641Z" fill="#444CE7"/>
<path d="M64.1393 34.2401C66.8393 34.2401 69.0593 32.8601 69.7493 30.7901V34.0001H73.7393V25.9001C73.7393 24.0701 72.2993 22.5101 70.3493 22.5101H64.6493V25.9001H68.6993C69.2093 25.9001 69.5393 26.2301 69.5393 26.7401C69.5393 28.6901 66.9593 30.5801 64.3493 30.5801C60.8693 30.5801 58.1093 27.8501 58.1093 23.5001C58.1093 19.1501 60.8693 16.6301 64.4393 16.6301C67.1393 16.6301 68.9993 18.1001 69.3293 20.3501H73.7993C73.5293 15.8501 69.7493 12.7601 64.4693 12.7601C58.9193 12.7601 53.8193 16.3301 53.8193 23.5001C53.8193 30.6701 58.7693 34.2401 64.1393 34.2401Z" fill="#101828"/>
<path d="M75.4521 34.0001H79.6221V12.3101H75.4521V34.0001Z" fill="#101828"/>
<path d="M88.6172 34.2401C93.2672 34.2401 96.5972 30.9401 96.5972 26.4401C96.5972 21.9401 93.2672 18.6401 88.6172 18.6401C83.9672 18.6401 80.6372 21.9401 80.6372 26.4401C80.6372 30.9401 83.9672 34.2401 88.6172 34.2401ZM88.6172 30.6401C86.3672 30.6401 84.8372 28.9301 84.8372 26.4401C84.8372 23.9201 86.3672 22.2101 88.6172 22.2101C90.8672 22.2101 92.3972 23.9201 92.3972 26.4401C92.3972 28.9301 90.8672 30.6401 88.6172 30.6401Z" fill="#101828"/>
<path d="M105.928 34.2401C110.398 34.2401 113.068 31.1501 113.068 26.4401C113.068 21.7301 110.398 18.6401 105.988 18.6401C104.098 18.6401 102.628 19.3601 101.788 20.4701V12.3101H97.6182V34.0001H101.788V32.3501C102.628 33.5201 104.188 34.2401 105.928 34.2401ZM105.268 30.6401C103.018 30.6401 101.548 28.9601 101.548 26.4401C101.548 23.8901 103.018 22.2101 105.268 22.2101C107.458 22.2101 108.958 23.8901 108.958 26.4401C108.958 28.9601 107.458 30.6401 105.268 30.6401Z" fill="#101828"/>
<path d="M120.049 18.6401C115.909 18.6401 113.449 21.0701 113.269 24.1001H116.989C117.049 22.8401 117.979 21.7001 119.809 21.7001C121.519 21.7001 122.509 22.5701 122.509 23.8301C122.509 24.4601 122.119 24.9401 121.369 24.9401H118.819C115.519 24.9401 113.299 26.7401 113.299 29.7101C113.299 32.2901 115.309 34.2401 118.249 34.2401C120.319 34.2401 121.999 33.3101 122.509 31.9001V34.0001H126.649V24.2801C126.649 20.8601 123.859 18.6401 120.049 18.6401ZM119.299 31.2101C118.129 31.2101 117.289 30.5201 117.289 29.5301C117.289 28.3601 118.189 27.5801 119.449 27.5801H122.509V27.7901C122.509 29.7101 121.339 31.2101 119.299 31.2101Z" fill="#101828"/>
<path d="M128.251 34.0001H132.421V12.3101H128.251V34.0001Z" fill="#101828"/>
<path d="M134.636 34.0001H143.216C147.656 34.0001 150.716 31.7201 150.716 27.7301C150.716 24.9701 149.096 23.2901 147.176 22.5401C148.406 21.8801 149.636 20.3801 149.636 18.4001C149.636 14.8901 146.786 13.0001 142.976 13.0001H134.636V34.0001ZM139.076 21.0101V16.5701H142.556C144.566 16.5701 145.466 17.3801 145.466 18.7901C145.466 20.2001 144.566 21.0101 142.646 21.0101H139.076ZM139.076 30.1001V24.8201H142.826C145.316 24.8201 146.426 25.7801 146.426 27.4901C146.426 29.2001 145.316 30.1001 142.826 30.1001H139.076Z" fill="#101828"/>
<path d="M157.97 18.6401C153.83 18.6401 151.37 21.0701 151.19 24.1001H154.91C154.97 22.8401 155.9 21.7001 157.73 21.7001C159.44 21.7001 160.43 22.5701 160.43 23.8301C160.43 24.4601 160.04 24.9401 159.29 24.9401H156.74C153.44 24.9401 151.22 26.7401 151.22 29.7101C151.22 32.2901 153.23 34.2401 156.17 34.2401C158.24 34.2401 159.92 33.3101 160.43 31.9001V34.0001H164.57V24.2801C164.57 20.8601 161.78 18.6401 157.97 18.6401ZM157.22 31.2101C156.05 31.2101 155.21 30.5201 155.21 29.5301C155.21 28.3601 156.11 27.5801 157.37 27.5801H160.43V27.7901C160.43 29.7101 159.26 31.2101 157.22 31.2101Z" fill="#101828"/>
<path d="M165.933 34.0001H170.133V25.7201C170.133 23.7701 171.423 22.3601 173.253 22.3601C174.993 22.3601 176.163 23.6801 176.163 25.5101V34.0001H180.363V24.5801C180.363 21.1001 178.143 18.6401 174.723 18.6401C172.653 18.6401 170.973 19.5101 170.133 20.9801V18.8801H165.933V34.0001Z" fill="#101828"/>
<path d="M192.333 34.0001H197.373L190.863 24.8201L196.893 18.8801H191.613L186.363 24.0401V12.3101H182.163V34.0001H186.363V29.2601L188.043 27.6101L192.333 34.0001Z" fill="#101828"/>
</svg>
