<svg width="168" height="48" viewBox="0 0 168 48" fill="none" xmlns="http://www.w3.org/2000/svg">
<path fill-rule="evenodd" clip-rule="evenodd" d="M19.9657 3.44802C19.4606 3.34415 18.9398 3.34415 18.4347 3.44802C17.8509 3.56809 17.3291 3.86035 16.9143 4.0927L16.8012 4.15587L2.74173 11.9667C2.70286 11.9883 2.6628 12.0103 2.62176 12.033C2.18263 12.2748 1.63048 12.5789 1.20646 13.0391C0.83987 13.4369 0.562441 13.9084 0.392731 14.422C0.196435 15.0161 0.198732 15.6465 0.200558 16.1478C0.200729 16.1947 0.200896 16.2404 0.200896 16.2849V31.7068C0.200896 31.7513 0.200729 31.797 0.200558 31.8438C0.198732 32.3452 0.196435 32.9755 0.392731 33.5697C0.562443 34.0833 0.839872 34.5548 1.20646 34.9526C1.63048 35.4127 2.18263 35.7168 2.62176 35.9587C2.66281 35.9813 2.70286 36.0034 2.74173 36.025L16.8012 43.8358L16.9143 43.899C17.3291 44.1313 17.8509 44.4236 18.4347 44.5436C18.9398 44.6475 19.4606 44.6475 19.9657 44.5436C20.5495 44.4236 21.0713 44.1313 21.4861 43.899L21.5992 43.8358L35.6587 36.025C35.6758 36.0154 35.6933 36.0058 35.7109 35.9961C35.7331 35.9838 35.7557 35.9713 35.7786 35.9587C36.2178 35.7169 36.7699 35.4127 37.1939 34.9526C37.5605 34.5548 37.838 34.0833 38.0077 33.5697C38.204 32.9755 38.2017 32.3452 38.1998 31.8438C38.1997 31.797 38.1995 31.7513 38.1995 31.7068V16.2849C38.1995 16.2404 38.1997 16.1947 38.1998 16.1478C38.2017 15.6465 38.204 15.0161 38.0077 14.422C37.838 13.9084 37.5605 13.4369 37.1939 13.0391C36.7699 12.5789 36.2178 12.2748 35.7786 12.0329L35.7771 12.0321C35.7366 12.0098 35.697 11.988 35.6587 11.9667L21.5992 4.15586L21.4861 4.09269C21.0713 3.86035 20.5495 3.56809 19.9657 3.44802ZM18.6466 7.47754C18.9345 7.31759 19.0815 7.23676 19.1911 7.18388L19.2002 7.17953L19.2093 7.18388C19.3189 7.23676 19.4659 7.31758 19.7538 7.47754L32.3873 14.4961L19.2001 21.8223L6.01304 14.4962L18.6466 7.47754ZM4.00076 17.7251L17.3002 25.1137L17.3003 39.7662L4.5871 32.7033C4.2832 32.5345 4.12804 32.4474 4.01919 32.378L4.00999 32.3721L4.00931 32.3612C4.00155 32.2324 4.00076 32.0545 4.00076 31.7068V17.7251Z" fill="#101828"/>
<path d="M55.491 30.3452H61.539V33.9092H50.874V14.9552H55.491V30.3452Z" fill="#101828"/>
<path d="M65.7932 17.2772C64.9832 17.2772 64.3172 17.0432 63.7952 16.5752C63.2912 16.0892 63.0392 15.4952 63.0392 14.7932C63.0392 14.0732 63.2912 13.4792 63.7952 13.0112C64.3172 12.5252 64.9832 12.2822 65.7932 12.2822C66.5852 12.2822 67.2332 12.5252 67.7372 13.0112C68.2592 13.4792 68.5202 14.0732 68.5202 14.7932C68.5202 15.4952 68.2592 16.0892 67.7372 16.5752C67.2332 17.0432 66.5852 17.2772 65.7932 17.2772ZM68.0882 18.8432V33.9092H63.4712V18.8432H68.0882Z" fill="#101828"/>
<path d="M76.8881 18.6272C77.9501 18.6272 78.8771 18.8432 79.6691 19.2752C80.4791 19.7072 81.1001 20.2742 81.5321 20.9762V18.8432H86.1491V33.8822C86.1491 35.2682 85.8701 36.5192 85.3121 37.6352C84.7721 38.7692 83.9351 39.6692 82.8011 40.3352C81.6851 41.0012 80.2901 41.3342 78.6161 41.3342C76.3841 41.3342 74.5751 40.8032 73.1891 39.7412C71.8031 38.6972 71.0111 37.2752 70.8131 35.4752H75.3761C75.5201 36.0512 75.8621 36.5012 76.4021 36.8252C76.9421 37.1672 77.6081 37.3382 78.4001 37.3382C79.3541 37.3382 80.1101 37.0592 80.6681 36.5012C81.2441 35.9612 81.5321 35.0882 81.5321 33.8822V31.7492C81.0821 32.4512 80.4611 33.0272 79.6691 33.4772C78.8771 33.9092 77.9501 34.1252 76.8881 34.1252C75.6461 34.1252 74.5211 33.8102 73.5131 33.1802C72.5051 32.5322 71.7041 31.6232 71.1101 30.4532C70.5341 29.2652 70.2461 27.8972 70.2461 26.3492C70.2461 24.8012 70.5341 23.4422 71.1101 22.2722C71.7041 21.1022 72.5051 20.2022 73.5131 19.5722C74.5211 18.9422 75.6461 18.6272 76.8881 18.6272ZM81.5321 26.3762C81.5321 25.2242 81.2081 24.3152 80.5601 23.6492C79.9301 22.9832 79.1561 22.6502 78.2381 22.6502C77.3201 22.6502 76.5371 22.9832 75.8891 23.6492C75.2591 24.2972 74.9441 25.1972 74.9441 26.3492C74.9441 27.5012 75.2591 28.4192 75.8891 29.1032C76.5371 29.7692 77.3201 30.1022 78.2381 30.1022C79.1561 30.1022 79.9301 29.7692 80.5601 29.1032C81.2081 28.4372 81.5321 27.5282 81.5321 26.3762Z" fill="#101828"/>
<path d="M98.4803 18.6812C100.208 18.6812 101.594 19.2572 102.638 20.4092C103.682 21.5432 104.204 23.1092 104.204 25.1072V33.9092H99.6143V25.7282C99.6143 24.7202 99.3533 23.9372 98.8313 23.3792C98.3093 22.8212 97.6073 22.5422 96.7253 22.5422C95.8433 22.5422 95.1413 22.8212 94.6193 23.3792C94.0973 23.9372 93.8363 24.7202 93.8363 25.7282V33.9092H89.2193V13.9292H93.8363V20.8682C94.3043 20.2022 94.9433 19.6712 95.7533 19.2752C96.5633 18.8792 97.4723 18.6812 98.4803 18.6812Z" fill="#101828"/>
<path d="M115.54 29.9942V33.9092H113.191C111.517 33.9092 110.212 33.5042 109.276 32.6942C108.34 31.8662 107.872 30.5252 107.872 28.6712V22.6772H106.036V18.8432H107.872V15.1712H112.489V18.8432H115.513V22.6772H112.489V28.7252C112.489 29.1752 112.597 29.4992 112.813 29.6972C113.029 29.8952 113.389 29.9942 113.893 29.9942H115.54Z" fill="#101828"/>
<path d="M122.458 20.9762C122.89 20.2742 123.511 19.7072 124.321 19.2752C125.131 18.8432 126.058 18.6272 127.102 18.6272C128.344 18.6272 129.469 18.9422 130.477 19.5722C131.485 20.2022 132.277 21.1022 132.853 22.2722C133.447 23.4422 133.744 24.8012 133.744 26.3492C133.744 27.8972 133.447 29.2652 132.853 30.4532C132.277 31.6232 131.485 32.5322 130.477 33.1802C129.469 33.8102 128.344 34.1252 127.102 34.1252C126.04 34.1252 125.113 33.9182 124.321 33.5042C123.529 33.0722 122.908 32.5052 122.458 31.8032V33.9092H117.841V13.9292H122.458V20.9762ZM129.046 26.3492C129.046 25.1972 128.722 24.2972 128.074 23.6492C127.444 22.9832 126.661 22.6502 125.725 22.6502C124.807 22.6502 124.024 22.9832 123.376 23.6492C122.746 24.3152 122.431 25.2242 122.431 26.3762C122.431 27.5282 122.746 28.4372 123.376 29.1032C124.024 29.7692 124.807 30.1022 125.725 30.1022C126.643 30.1022 127.426 29.7692 128.074 29.1032C128.722 28.4192 129.046 27.5012 129.046 26.3492Z" fill="#101828"/>
<path d="M142.755 34.1252C141.279 34.1252 139.947 33.8102 138.759 33.1802C137.589 32.5502 136.662 31.6502 135.978 30.4802C135.312 29.3102 134.979 27.9422 134.979 26.3762C134.979 24.8282 135.321 23.4692 136.005 22.2992C136.689 21.1112 137.625 20.2022 138.813 19.5722C140.001 18.9422 141.333 18.6272 142.809 18.6272C144.285 18.6272 145.617 18.9422 146.805 19.5722C147.993 20.2022 148.929 21.1112 149.613 22.2992C150.297 23.4692 150.639 24.8282 150.639 26.3762C150.639 27.9242 150.288 29.2922 149.586 30.4802C148.902 31.6502 147.957 32.5502 146.751 33.1802C145.563 33.8102 144.231 34.1252 142.755 34.1252ZM142.755 30.1292C143.637 30.1292 144.384 29.8052 144.996 29.1572C145.626 28.5092 145.941 27.5822 145.941 26.3762C145.941 25.1702 145.635 24.2432 145.023 23.5952C144.429 22.9472 143.691 22.6232 142.809 22.6232C141.909 22.6232 141.162 22.9472 140.568 23.5952C139.974 24.2252 139.677 25.1522 139.677 26.3762C139.677 27.5822 139.965 28.5092 140.541 29.1572C141.135 29.8052 141.873 30.1292 142.755 30.1292Z" fill="#101828"/>
<path d="M161.728 33.9092L158.839 29.7242L156.409 33.9092H151.414L156.382 26.2142L151.279 18.8432H156.463L159.352 23.0012L161.782 18.8432H166.777L161.728 26.4302L166.912 33.9092H161.728Z" fill="#101828"/>
</svg>
