<svg width="167" height="48" viewBox="0 0 167 48" fill="none" xmlns="http://www.w3.org/2000/svg">
<circle cx="22.5996" cy="24.25" r="20.5" stroke="#6927DA" stroke-width="3"/>
<path d="M30.7316 32.3819C26.5922 36.5213 21.9027 39.2235 17.7263 40.2975C13.5123 41.3811 10.1156 40.7573 8.10422 38.7459C6.09281 36.7345 5.46902 33.3379 6.55265 29.1238C7.62657 24.9474 10.3288 20.2579 14.4682 16.1185C18.6076 11.9791 23.2971 9.27686 27.4735 8.20294C31.6876 7.11932 35.0842 7.74311 37.0956 9.75451C39.107 11.7659 39.7308 15.1625 38.6472 19.3766C37.5732 23.553 34.871 28.2425 30.7316 32.3819Z" stroke="#6927DA" stroke-width="3"/>
<path d="M30.7311 16.1185C34.8704 20.2579 37.5727 24.9474 38.6466 29.1238C39.7302 33.3378 39.1064 36.7345 37.095 38.7459C35.0836 40.7573 31.687 41.3811 27.4729 40.2975C23.2965 39.2235 18.607 36.5213 14.4676 32.3819C10.3282 28.2425 7.62599 23.553 6.55206 19.3766C5.46844 15.1625 6.09223 11.7659 8.10363 9.7545C10.115 7.7431 13.5117 7.11931 17.7258 8.20293C21.9021 9.27685 26.5917 11.9791 30.7311 16.1185Z" stroke="#6927DA" stroke-width="3"/>
<path d="M63.4493 34.2401C68.1593 34.2401 71.3393 31.7801 71.3393 27.8501C71.3393 19.5401 60.2993 23.0801 60.2993 18.7001C60.2993 17.4701 61.4093 16.6301 63.1793 16.6301C65.1893 16.6301 66.4493 17.7101 66.5993 19.3601H70.8893C70.7693 15.3701 67.7093 12.7601 63.1793 12.7601C58.9193 12.7601 55.9193 15.2201 55.9193 18.7001C55.9193 26.9501 66.8093 23.8001 66.8093 27.9101C66.8093 29.5001 65.4593 30.3401 63.4493 30.3401C61.2293 30.3401 59.8193 28.9901 59.6393 26.8601H55.3193C55.4993 31.3301 58.6793 34.2401 63.4493 34.2401Z" fill="#101828"/>
<path d="M72.3596 40.1201H76.5296V32.6501C77.3396 33.6701 78.8096 34.2401 80.5196 34.2401C84.8696 34.2401 87.8096 31.1501 87.8096 26.4401C87.8096 21.7301 85.1096 18.6401 80.8796 18.6401C78.9296 18.6401 77.4296 19.3601 76.5296 20.5301V18.8801H72.3596V40.1201ZM80.0096 30.6401C77.7596 30.6401 76.2896 28.9601 76.2896 26.4401C76.2896 23.8901 77.7596 22.2101 80.0096 22.2101C82.1996 22.2101 83.6996 23.8901 83.6996 26.4401C83.6996 28.9601 82.1996 30.6401 80.0096 30.6401Z" fill="#101828"/>
<path d="M88.8186 34.0001H92.9886V25.7201C92.9886 23.7701 94.2786 22.3601 96.1086 22.3601C97.8486 22.3601 99.0486 23.6801 99.0486 25.5101V34.0001H103.219V24.5801C103.219 21.1001 100.999 18.6401 97.6086 18.6401C95.5086 18.6401 93.8586 19.5101 92.9886 20.9801V12.3101H88.8186V34.0001Z" fill="#101828"/>
<path d="M114.884 28.8701C114.554 30.1601 113.444 30.8201 111.764 30.8201C109.664 30.8201 108.314 29.5001 108.014 27.3701H118.874C118.904 27.0401 118.934 26.5901 118.934 26.0201C118.934 22.5701 116.804 18.6401 111.464 18.6401C106.334 18.6401 103.994 22.5701 103.994 26.4101C103.994 30.2201 106.634 34.2401 111.764 34.2401C115.484 34.2401 118.364 32.1401 118.964 28.8701H114.884ZM111.464 21.7001C113.474 21.7001 114.644 23.0501 114.764 24.7301H108.074C108.434 22.6301 109.574 21.7001 111.464 21.7001Z" fill="#101828"/>
<path d="M129.87 22.3601V18.8801H127.719C125.889 18.8801 124.749 19.5101 123.939 21.4001V18.8801H119.739V34.0001H123.939V26.6501C123.939 24.0701 124.869 22.3601 126.939 22.3601H129.87Z" fill="#101828"/>
<path d="M144.27 18.8801H140.07V27.1601C140.07 29.0801 138.78 30.5201 136.95 30.5201C135.24 30.5201 134.04 29.2001 134.04 27.3701V18.8801H129.87V28.3001C129.87 31.7501 132.09 34.2401 135.48 34.2401C137.55 34.2401 139.23 33.3401 140.07 31.9001V34.0001H144.27V18.8801Z" fill="#101828"/>
<path d="M146.071 34.0001H150.241V12.3101H146.071V34.0001Z" fill="#101828"/>
<path d="M162.146 28.8701C161.816 30.1601 160.706 30.8201 159.026 30.8201C156.926 30.8201 155.576 29.5001 155.276 27.3701H166.136C166.166 27.0401 166.196 26.5901 166.196 26.0201C166.196 22.5701 164.066 18.6401 158.726 18.6401C153.596 18.6401 151.256 22.5701 151.256 26.4101C151.256 30.2201 153.896 34.2401 159.026 34.2401C162.746 34.2401 165.626 32.1401 166.226 28.8701H162.146ZM158.726 21.7001C160.736 21.7001 161.906 23.0501 162.026 24.7301H155.336C155.696 22.6301 156.836 21.7001 158.726 21.7001Z" fill="#101828"/>
</svg>
